<svg width="86" height="86" viewBox="0 0 86 86" fill="none" xmlns="http://www.w3.org/2000/svg">
<g filter="url(#filter0_d_519_8156)">
<g clip-path="url(#clip0_519_8156)">
<rect x="8" y="8" width="70" height="70" rx="14" fill="white"/>
<rect x="8" y="8" width="70" height="70" rx="14" fill="#FF6B92"/>
<path d="M20.5507 65.8998C20.2562 66.0471 19.9862 66.0765 19.7407 65.9882C19.5051 65.8998 19.3087 65.7722 19.1516 65.6053C19.0535 65.5169 18.9847 65.404 18.9455 65.2665C18.9062 65.1389 18.8915 65.0015 18.9013 64.8542C18.9111 64.7069 18.9405 64.5547 18.9896 64.3976C19.0485 64.2504 19.1222 64.1129 19.2105 63.9853C19.4462 63.6515 19.6376 63.3373 19.7849 63.0427C19.9322 62.7384 20.0451 62.4389 20.1236 62.1444C20.2022 61.84 20.2562 61.5209 20.2856 61.1871C20.3151 60.8533 20.3298 60.4802 20.3298 60.0678V55.7527H17.6789C17.404 55.7527 17.1782 55.7282 17.0015 55.6791C16.8247 55.6202 16.6873 55.5465 16.5891 55.4582C16.4909 55.36 16.4222 55.252 16.3829 55.1342C16.3535 55.0065 16.3387 54.8691 16.3387 54.7218C16.3387 54.604 16.3535 54.4862 16.3829 54.3684C16.4222 54.2407 16.4909 54.1327 16.5891 54.0444C16.6873 53.9462 16.8247 53.8676 17.0015 53.8087C17.1782 53.7498 17.404 53.7204 17.6789 53.7204H21.6405C21.9056 53.7204 22.1118 53.7498 22.2591 53.8087C22.4064 53.8578 22.5193 53.9315 22.5978 54.0296C22.6764 54.118 22.7255 54.2309 22.7451 54.3684C22.7647 54.5058 22.7745 54.6629 22.7745 54.8396V60.6127C22.7745 60.8091 22.7598 61.0545 22.7304 61.3491C22.7009 61.6436 22.6518 61.9627 22.5831 62.3064C22.5144 62.65 22.4211 63.0035 22.3033 63.3667C22.1953 63.73 22.0578 64.0736 21.8909 64.3976C21.724 64.7216 21.5276 65.0162 21.3018 65.2813C21.0858 65.5464 20.8355 65.7525 20.5507 65.8998ZM27.3989 66.1796C27.2418 66.1796 27.0896 66.16 26.9424 66.1207C26.8049 66.0815 26.6773 66.0127 26.5595 65.9145C26.4515 65.8164 26.3631 65.6838 26.2944 65.5169C26.2355 65.35 26.206 65.1389 26.206 64.8836V54.8249C26.206 54.334 26.3238 54.0002 26.5595 53.8235C26.8049 53.6369 27.0847 53.5436 27.3989 53.5436C27.556 53.5436 27.7033 53.5633 27.8407 53.6025C27.988 53.6418 28.1156 53.7105 28.2236 53.8087C28.3316 53.9069 28.42 54.0395 28.4887 54.2064C28.5575 54.3733 28.5918 54.5795 28.5918 54.8249V64.8836C28.5918 65.1389 28.5575 65.35 28.4887 65.5169C28.42 65.6838 28.3316 65.8164 28.2236 65.9145C28.1156 66.0127 27.988 66.0815 27.8407 66.1207C27.7033 66.16 27.556 66.1796 27.3989 66.1796ZM40.4354 66.3416C40.1212 66.3416 39.8414 66.2484 39.596 66.0618C39.3603 65.8851 39.2425 65.5513 39.2425 65.0604V63.352H31.8641C31.5892 63.352 31.3634 63.3225 31.1867 63.2636C31.01 63.2047 30.8725 63.1311 30.7743 63.0427C30.6761 62.9445 30.6074 62.8365 30.5681 62.7187C30.5387 62.5911 30.524 62.4684 30.524 62.3505C30.524 62.2033 30.5387 62.0707 30.5681 61.9529C30.6074 61.8253 30.6761 61.7173 30.7743 61.6289C30.8725 61.5307 31.01 61.4571 31.1867 61.408C31.3634 61.3491 31.5892 61.3196 31.8641 61.3196H40.4354C40.7103 61.3196 40.9263 61.3491 41.0834 61.408C41.2405 61.4571 41.3583 61.5307 41.4369 61.6289C41.5252 61.7173 41.5792 61.8253 41.5989 61.9529C41.6185 62.0707 41.6283 62.2033 41.6283 62.3505V65.0604C41.6283 65.3058 41.594 65.512 41.5252 65.6789C41.4565 65.8458 41.3681 65.9784 41.2601 66.0765C41.1521 66.1747 41.0245 66.2435 40.8772 66.2827C40.7398 66.322 40.5925 66.3416 40.4354 66.3416ZM33.2191 60.2593C32.0703 60.2593 31.226 59.9991 30.686 59.4787C30.1558 58.9584 29.8907 58.114 29.8907 56.9456C29.8907 55.7675 30.1558 54.9182 30.686 54.3978C31.2161 53.8676 32.0605 53.6025 33.2191 53.6025C34.3776 53.6025 35.222 53.8676 35.7521 54.3978C36.2823 54.9182 36.5474 55.7675 36.5474 56.9456C36.5474 57.5642 36.4787 58.0895 36.3412 58.5215C36.2136 58.9436 36.0123 59.2824 35.7374 59.5376C35.4723 59.7929 35.1287 59.9795 34.7065 60.0973C34.2843 60.2053 33.7885 60.2593 33.2191 60.2593ZM33.2191 58.3153C33.6118 58.3153 33.8621 58.2122 33.9701 58.006C34.088 57.79 34.1469 57.4365 34.1469 56.9456C34.1469 56.4547 34.088 56.1013 33.9701 55.8853C33.8621 55.6693 33.6118 55.5613 33.2191 55.5613C32.8263 55.5613 32.5711 55.6693 32.4532 55.8853C32.3452 56.1013 32.2912 56.4547 32.2912 56.9456C32.2912 57.4365 32.3452 57.79 32.4532 58.006C32.5711 58.2122 32.8263 58.3153 33.2191 58.3153ZM40.4796 60.7158C40.3225 60.7158 40.1703 60.6962 40.0231 60.6569C39.8856 60.6176 39.758 60.5489 39.6401 60.4507C39.5321 60.3525 39.4438 60.22 39.3751 60.0531C39.3161 59.8862 39.2867 59.6751 39.2867 59.4198V58.0207H38.3294C38.0545 58.0207 37.8336 57.9962 37.6667 57.9471C37.4998 57.8882 37.3672 57.8096 37.2691 57.7115C37.1807 57.6133 37.1218 57.5053 37.0923 57.3875C37.0629 57.2598 37.0481 57.1224 37.0481 56.9751C37.0481 56.8573 37.0629 56.7395 37.0923 56.6216C37.1218 56.494 37.1807 56.3811 37.2691 56.2829C37.3672 56.1847 37.4998 56.1062 37.6667 56.0473C37.8336 55.9884 38.0545 55.9589 38.3294 55.9589H39.2867V54.8249C39.2867 54.334 39.4045 54.0002 39.6401 53.8235C39.8856 53.6369 40.1654 53.5436 40.4796 53.5436C40.6367 53.5436 40.784 53.5633 40.9214 53.6025C41.0687 53.6418 41.1963 53.7105 41.3043 53.8087C41.4123 53.9069 41.5007 54.0395 41.5694 54.2064C41.6381 54.3733 41.6725 54.5795 41.6725 54.8249V59.4198C41.6725 59.6751 41.6381 59.8862 41.5694 60.0531C41.5007 60.22 41.4123 60.3525 41.3043 60.4507C41.1963 60.5489 41.0687 60.6176 40.9214 60.6569C40.784 60.6962 40.6367 60.7158 40.4796 60.7158ZM51.2776 66.1796C51.1401 66.1796 51.0076 66.16 50.8799 66.1207C50.7523 66.0815 50.6394 66.0127 50.5412 65.9145C50.4528 65.8164 50.3792 65.6838 50.3203 65.5169C50.2614 65.35 50.2319 65.1389 50.2319 64.8836V54.8249C50.2319 54.334 50.335 54.0002 50.5412 53.8235C50.7572 53.6369 51.0027 53.5436 51.2776 53.5436C51.5427 53.5436 51.7783 53.6369 51.9845 53.8235C52.2005 54.0002 52.3085 54.334 52.3085 54.8249V58.6393H53.3394V54.8249C53.3394 54.334 53.4425 54.0002 53.6487 53.8235C53.8647 53.6369 54.1101 53.5436 54.385 53.5436C54.6501 53.5436 54.8858 53.6369 55.0919 53.8235C55.3079 54.0002 55.4159 54.334 55.4159 54.8249V64.8836C55.4159 65.1389 55.3865 65.35 55.3276 65.5169C55.2687 65.6838 55.1901 65.8164 55.0919 65.9145C55.0036 66.0127 54.8956 66.0815 54.7679 66.1207C54.6403 66.16 54.5127 66.1796 54.385 66.1796C54.2476 66.1796 54.115 66.16 53.9874 66.1207C53.8598 66.0815 53.7468 66.0127 53.6487 65.9145C53.5603 65.8164 53.4867 65.6838 53.4278 65.5169C53.3688 65.35 53.3394 65.1389 53.3394 64.8836V60.6716H52.3085V64.8836C52.3085 65.1389 52.279 65.35 52.2201 65.5169C52.1612 65.6838 52.0827 65.8164 51.9845 65.9145C51.8961 66.0127 51.7881 66.0815 51.6605 66.1207C51.5328 66.16 51.4052 66.1796 51.2776 66.1796ZM46.1819 66.1207C45.6125 66.1207 45.151 66.0569 44.7976 65.9293C44.4441 65.8016 44.1643 65.6102 43.9581 65.3549C43.7618 65.1095 43.6243 64.8002 43.5458 64.4271C43.477 64.0638 43.4427 63.6416 43.4427 63.1605V61.6731C43.4427 61.1822 43.477 60.7502 43.5458 60.3771C43.6145 60.004 43.747 59.6898 43.9434 59.4345C44.1496 59.1793 44.4294 58.9878 44.7828 58.8602C45.1363 58.7227 45.6027 58.654 46.1819 58.654C46.7219 58.654 47.1687 58.7227 47.5221 58.8602C47.8854 58.9878 48.1701 59.1793 48.3763 59.4345C48.5825 59.6898 48.7248 60.0089 48.8034 60.3918C48.8918 60.7649 48.9359 61.192 48.9359 61.6731V63.1605C48.9359 63.6515 48.8967 64.0835 48.8181 64.4565C48.7396 64.8296 48.5972 65.1389 48.391 65.3844C48.1848 65.6298 47.905 65.8115 47.5516 65.9293C47.1981 66.0569 46.7416 66.1207 46.1819 66.1207ZM46.1819 64.162C46.2605 64.162 46.3292 64.1522 46.3881 64.1325C46.4568 64.1227 46.5158 64.0835 46.5648 64.0147C46.6139 63.946 46.6532 63.8527 46.6827 63.7349C46.7121 63.6073 46.7318 63.4305 46.7416 63.2047V61.57C46.7416 61.3638 46.7268 61.1969 46.6974 61.0693C46.6679 60.9416 46.6287 60.8484 46.5796 60.7895C46.5305 60.7207 46.4716 60.6765 46.4028 60.6569C46.3341 60.6373 46.2605 60.6275 46.1819 60.6275C46.015 60.6275 45.8825 60.6864 45.7843 60.8042C45.6861 60.922 45.637 61.192 45.637 61.6142V63.2047C45.637 63.4305 45.6468 63.6073 45.6665 63.7349C45.6959 63.8527 45.7303 63.946 45.7696 64.0147C45.8187 64.0835 45.8776 64.1227 45.9463 64.1325C46.015 64.1522 46.0936 64.162 46.1819 64.162ZM44.0318 58.0502C43.7568 58.0502 43.531 58.0256 43.3543 57.9765C43.1776 57.9176 43.0401 57.844 42.9419 57.7556C42.8438 57.6673 42.775 57.5642 42.7358 57.4464C42.7063 57.3285 42.6916 57.2107 42.6916 57.0929C42.6916 56.9456 42.7063 56.8131 42.7358 56.6953C42.775 56.5775 42.8438 56.4744 42.9419 56.386C43.0401 56.2976 43.1776 56.2289 43.3543 56.1798C43.531 56.1307 43.7568 56.1062 44.0318 56.1062H48.1259C48.4008 56.1062 48.6267 56.1307 48.8034 56.1798C48.9801 56.2289 49.1176 56.2976 49.2158 56.386C49.3139 56.4744 49.3778 56.5775 49.4072 56.6953C49.4465 56.8131 49.4661 56.9456 49.4661 57.0929C49.4661 57.2107 49.4465 57.3285 49.4072 57.4464C49.3778 57.5642 49.3139 57.6673 49.2158 57.7556C49.1176 57.844 48.9801 57.9176 48.8034 57.9765C48.6267 58.0256 48.4008 58.0502 48.1259 58.0502H44.0318ZM44.9596 55.3256C44.6847 55.3256 44.4588 55.3011 44.2821 55.252C44.1054 55.1931 43.9679 55.1195 43.8698 55.0311C43.7716 54.9427 43.7028 54.8396 43.6636 54.7218C43.6341 54.604 43.6194 54.4862 43.6194 54.3684C43.6194 54.2211 43.6341 54.0885 43.6636 53.9707C43.7028 53.8529 43.7716 53.7498 43.8698 53.6615C43.9679 53.5731 44.1054 53.5044 44.2821 53.4553C44.4588 53.4062 44.6847 53.3816 44.9596 53.3816H47.1981C47.473 53.3816 47.6988 53.4062 47.8756 53.4553C48.0523 53.5044 48.1898 53.5731 48.2879 53.6615C48.3861 53.7498 48.4499 53.8529 48.4794 53.9707C48.5187 54.0885 48.5383 54.2211 48.5383 54.3684C48.5383 54.4862 48.5187 54.604 48.4794 54.7218C48.4499 54.8396 48.3861 54.9427 48.2879 55.0311C48.1898 55.1195 48.0523 55.1931 47.8756 55.252C47.6988 55.3011 47.473 55.3256 47.1981 55.3256H44.9596ZM57.407 61.4375C57.1615 61.4375 56.9652 61.4178 56.8179 61.3785C56.6706 61.3295 56.5577 61.2656 56.4792 61.1871C56.4006 61.1085 56.3466 61.0153 56.3172 60.9073C56.2975 60.7993 56.2877 60.6765 56.2877 60.5391C56.2877 60.4311 56.2975 60.328 56.3172 60.2298C56.3466 60.1218 56.4006 60.0285 56.4792 59.95C56.5577 59.8616 56.6706 59.7929 56.8179 59.7438C56.9652 59.6849 57.1615 59.6555 57.407 59.6555H61.5454V58.9044H58.5115C58.2366 58.9044 58.0206 58.8798 57.8635 58.8307C57.7064 58.7718 57.5837 58.6982 57.4954 58.6098C57.4168 58.5116 57.3677 58.4036 57.3481 58.2858C57.3284 58.1582 57.3186 58.0207 57.3186 57.8735V54.928C57.3186 54.4371 57.4315 54.1082 57.6574 53.9413C57.893 53.7744 58.1679 53.6909 58.4821 53.6909C58.6294 53.6909 58.7766 53.7105 58.9239 53.7498C59.0712 53.7793 59.2037 53.8431 59.3215 53.9413C59.4394 54.0296 59.5326 54.1524 59.6014 54.3095C59.6799 54.4665 59.7192 54.6629 59.7192 54.8985H65.7868C65.7868 54.6629 65.8212 54.4665 65.8899 54.3095C65.9684 54.1524 66.0617 54.0296 66.1697 53.9413C66.2875 53.8431 66.4201 53.7793 66.5674 53.7498C66.7146 53.7105 66.8668 53.6909 67.0239 53.6909C67.181 53.6909 67.3283 53.7105 67.4657 53.7498C67.6032 53.7793 67.7259 53.8431 67.8339 53.9413C67.9419 54.0296 68.0254 54.1573 68.0843 54.3242C68.153 54.4813 68.1874 54.6825 68.1874 54.928V57.8735C68.1874 58.0207 68.1775 58.1582 68.1579 58.2858C68.1383 58.4036 68.0843 58.5116 67.9959 58.6098C67.9174 58.6982 67.7995 58.7718 67.6424 58.8307C67.4854 58.8798 67.2694 58.9044 66.9944 58.9044H63.9312V59.6555H68.1137C68.3592 59.6555 68.5555 59.6849 68.7028 59.7438C68.8501 59.7929 68.963 59.8616 69.0415 59.95C69.1201 60.0285 69.1692 60.1218 69.1888 60.2298C69.2183 60.328 69.233 60.4311 69.233 60.5391C69.233 60.6765 69.2183 60.7993 69.1888 60.9073C69.1692 61.0153 69.1201 61.1085 69.0415 61.1871C68.963 61.2656 68.8501 61.3295 68.7028 61.3785C68.5555 61.4178 68.3592 61.4375 68.1137 61.4375H57.407ZM58.5115 66.3416C58.2366 66.3416 58.0206 66.3122 57.8635 66.2533C57.7064 66.2042 57.5837 66.1305 57.4954 66.0324C57.4168 65.944 57.3677 65.836 57.3481 65.7084C57.3284 65.5905 57.3186 65.458 57.3186 65.3107V63.3667C57.3186 62.9936 57.4119 62.6893 57.5984 62.4536C57.7948 62.2082 58.1483 62.0855 58.6588 62.0855H67.0092C67.2841 62.0855 67.5001 62.1149 67.6572 62.1738C67.8143 62.2229 67.9321 62.2965 68.0106 62.3947C68.099 62.4831 68.153 62.5911 68.1726 62.7187C68.1923 62.8365 68.2021 62.9691 68.2021 63.1164V65.0604C68.2021 65.5513 68.0744 65.8851 67.8192 66.0618C67.5639 66.2484 67.2448 66.3416 66.8619 66.3416H58.5115ZM65.8163 64.5596V63.8675H59.7044V64.5596H65.8163ZM65.7868 57.2402V56.5627H59.7192V57.2402H65.7868Z" fill="white"/>
<path opacity="0.5" d="M56.1921 43.5713C53.2636 45.9141 49.4376 46.5507 46.4112 46.6162C43.4916 46.6794 41.4256 44.097 42.1282 41.2624C42.8565 38.3243 44.3174 34.7313 47.246 32.3885C52.9417 27.832 59.5617 26.6415 62.0321 29.7296C64.5025 32.8176 61.8878 39.0148 56.1921 43.5713Z" fill="white"/>
<path opacity="0.5" d="M51.8536 30.6868C52.5297 35.5613 50.4414 40.2899 48.4854 43.4937C46.9637 45.9863 43.7132 46.4371 41.5705 44.4528C38.8164 41.9023 35.52 37.9206 34.8439 33.0461C33.6422 24.3826 36.4759 16.8312 41.173 16.1797C45.8701 15.5283 50.6519 22.0233 51.8536 30.6868Z" fill="white"/>
<path opacity="0.5" d="M43.0598 29.6959C45.9283 33.6945 46.2825 38.8516 46.0437 42.5977C45.8579 45.5121 43.1914 47.4249 40.3712 46.6669C36.7462 45.6925 31.9746 43.7042 29.1062 39.7055C24.008 32.5985 22.9987 24.5964 26.8519 21.8323C30.7051 19.0683 37.9616 22.5889 43.0598 29.6959Z" fill="white"/>
<path d="M8 22.7H14.65C15.6165 22.7 16.4 23.4835 16.4 24.45C16.4 25.4164 15.6165 26.2 14.65 26.2H8V22.7Z" fill="white"/>
<path d="M8 30.3999H14.65C15.6165 30.3999 16.4 31.1834 16.4 32.1499C16.4 33.1164 15.6165 33.8999 14.65 33.8999H8V30.3999Z" fill="white"/>
<path d="M8 38.1001H14.65C15.6165 38.1001 16.4 38.8836 16.4 39.8501C16.4 40.8166 15.6165 41.6001 14.65 41.6001H8V38.1001Z" fill="white"/>
</g>
</g>
<defs>
<filter id="filter0_d_519_8156" x="0" y="0" width="86" height="86" filterUnits="userSpaceOnUse" color-interpolation-filters="sRGB">
<feFlood flood-opacity="0" result="BackgroundImageFix"/>
<feColorMatrix in="SourceAlpha" type="matrix" values="0 0 0 0 0 0 0 0 0 0 0 0 0 0 0 0 0 0 127 0" result="hardAlpha"/>
<feMorphology radius="3" operator="dilate" in="SourceAlpha" result="effect1_dropShadow_519_8156"/>
<feOffset/>
<feGaussianBlur stdDeviation="2.5"/>
<feComposite in2="hardAlpha" operator="out"/>
<feColorMatrix type="matrix" values="0 0 0 0 0 0 0 0 0 0 0 0 0 0 0 0 0 0 0.1 0"/>
<feBlend mode="normal" in2="BackgroundImageFix" result="effect1_dropShadow_519_8156"/>
<feBlend mode="normal" in="SourceGraphic" in2="effect1_dropShadow_519_8156" result="shape"/>
</filter>
<clipPath id="clip0_519_8156">
<rect x="8" y="8" width="70" height="70" rx="14" fill="white"/>
</clipPath>
</defs>
</svg>
